# xmcd
#
# Track frame offsets:
#	150
#	24021
#	36677
#	48455
#	61622
#	71932
#	84994
#	107326
#	116476
#	128595
#	147630
#	161689
#	187089
#	197014
#	214317
#
# Disc length: 3033 seconds
#
# Revision: 5
# Processed by: cddbd v1.5.2PL0 Copyright (c) Steve Scherf et al.
# Submitted via: audiograbber 1.83.01
#
DISCID=d80bd70f
DTITLE=Various Artist - Baby Driver [CD 1)
DYEAR=2017
DGENRE=Soundtrack
TTITLE0=The Jon Spencer Blues Explosion - Bellbottoms
TTITLE1=Bob and Earl - Harlem Shuffle
TTITLE2=Jonathan Richman and The Modern Lovers - Egyptian Reggae
TTITLE3=Googie Rene - Smokey Joe's La La
TTITLE4=The Beach Boys - Let's Go Away For Awhile
TTITLE5=Carla Thomas - B-A-B-Y
TTITLE6=Kashmere Stage Band - Kashmere
TTITLE7=The Dave Brubeck Quartet - Unsquare Dance
TTITLE8=The Damned - Neat Neat Neat
TTITLE9=The Commodores - Easy
TTITLE10=T. Rex - Debora
TTITLE11=Beck - Debra
TTITLE12=Incredible Bongo Band - Bongolia
TTITLE13=The Detroit Emeralds - Baby Let Me Take You (In My Arms)
TTITLE14=Alexis Korner's Blues Incorporated - Early In The Morning
EXTD=
EXTT0=
EXTT1=
EXTT2=
EXTT3=
EXTT4=
EXTT5=
EXTT6=
EXTT7=
EXTT8=
EXTT9=
EXTT10=
EXTT11=
EXTT12=
EXTT13=
EXTT14=
PLAYORDER=
